<?xml version="1.0" encoding="utf-8"?>
<!-- Generator: Adobe Illustrator 26.3.1, SVG Export Plug-In . SVG Version: 6.00 Build 0)  -->
<svg version="1.1" id="Layer_1" xmlns="http://www.w3.org/2000/svg" xmlns:xlink="http://www.w3.org/1999/xlink" x="0px" y="0px"
	 viewBox="0 0 225.1 36.1" style="enable-background:new 0 0 225.1 36.1;" xml:space="preserve">
<style type="text/css">
	.st0{fill:#0072B1;}
</style>
<g>
	<path class="st0" d="M213.7,9v13.7h3.1V19l1.9-2.1l2.6,5.8h3.7l-4-8.4l4.1-5.2H222l-5.2,6.5V9H213.7z M203.8,11.7h2.5
		c0.8-0.1,1.6,0.5,1.7,1.4c0,0.1,0,0.2,0,0.4c0.1,0.8-0.5,1.6-1.3,1.7c-0.1,0-0.2,0-0.3,0h-2.6L203.8,11.7z M208.8,16.3
		c1.5-0.4,2.4-1.9,2.3-3.4c0.1-2-1.4-3.8-3.4-3.9c-0.2,0-0.3,0-0.5,0h-6.6v13.7h3.2v-5.2h2c1,0,1.3,0.4,1.6,1.4l0.7,2.4
		c0.2,1.1,0.8,1.5,1.7,1.5h2.3v-1c-0.4,0-0.6-0.2-0.7-0.6l-0.7-2.4c-0.4-1.5-1-2-1.9-2.2L208.8,16.3z M188.8,15.9
		c0-3.3,1.6-4.3,3.2-4.3s3.2,1,3.2,4.3s-1.6,4.2-3.2,4.2S188.8,19.1,188.8,15.9 M192.1,22.9c4.1,0,6.5-2.7,6.5-6.9
		c0-4-2.1-7.1-6.5-7.1s-6.6,3.2-6.6,7.2C185.5,20.2,188.1,23,192.1,22.9 M185,9h-3.1l-2,8.4L177.1,9H174l-2.5,8.4L169.4,9h-3.8
		l3.9,13.6h2.6l2.9-9.1l3,9.1h3.1L185,9z M164.6,9h-10v2.8h3.4v10.9h3.2V11.8h3.4L164.6,9z M144.4,22.7h9v-2.8h-5.8v-3h3.8v-2.3
		h-3.8v-2.8h5.7V9h-8.9V22.7z M130.4,9v13.7h2.6v-9.2l5.5,9.2h3.3V9h-2.6v8.3l-5-8.3L130.4,9z M124.7,9h-3.2l-2.7,5L116,9h-3.8
		l4.6,8v5.7h3.2V17L124.7,9z M105,11.7h2.1c1,0,1.8,0.8,1.8,1.8c0,0.1,0,0.1,0,0.2c0,1.3-0.7,2-1.8,2H105V11.7z M101.7,22.7h3.3V18
		h2.8c2.7,0,4.3-1.7,4.3-4.5c0.2-2.3-1.6-4.3-3.9-4.5c-0.1,0-0.3,0-0.4,0h-6.1L101.7,22.7z M93.5,12.4l1.8,5.6h-3.4L93.5,12.4z
		 M87.8,22.7h3l0.7-2.5h4.2l0.7,2.5h3.9L95.6,9h-3.3L87.8,22.7z M78.5,11.7H81c0.9-0.1,1.6,0.6,1.7,1.4c0,0.1,0,0.2,0,0.3
		c0.1,0.8-0.5,1.6-1.3,1.7c-0.1,0-0.2,0-0.4,0h-2.5L78.5,11.7z M83.6,16.4c1.5-0.5,2.4-1.9,2.3-3.4c0.1-2-1.4-3.8-3.4-3.9
		c-0.2,0-0.3,0-0.5,0h-6.7v13.7h3.2v-5.2h2c1,0,1.3,0.4,1.6,1.4l0.7,2.4c0.2,1.1,0.8,1.5,1.7,1.5h2.3v-1c-0.4,0-0.5-0.2-0.7-0.6
		l-0.7-2.4C85,17.2,84.4,16.7,83.6,16.4L83.6,16.4z M64.3,22.7h9v-2.8h-5.8v-3h3.8v-2.3h-3.8v-2.8h5.7V9h-8.9
		C64.3,9,64.3,22.7,64.3,22.7z M50.1,9v13.7h3.2v-5.5h5.2v5.5h3.2V9h-3.2v5.3h-5.2V9H50.1z M48.7,9h-10v2.8H42v10.9h3.2V11.8h3.5V9z
		"/>
	<path class="st0" d="M21.8,10.3c1.8-1.1,3.5-2.2,5.3-3.3c0.6-0.4,1.2-0.7,1.8-1.1l-0.6-0.6c-1.1,0.4-2.3,0.9-3.4,1.4l-5.6,2.6
		c-3.8,1.8-7.7,3.1-11.8,4.1C5,14,2.6,14.3,0,14.5c0,0.6,0,1.3,0,1.9c0,0.6,0,1.1,0.1,1.7c3.6-0.4,7.2-1.2,10.6-2.4
		C14.5,14.3,18.3,12.5,21.8,10.3 M14,19c3.3-2.1,6.4-4.6,9.5-7l4.6-3.7L29.8,7c-0.2-0.3-0.4-0.6-0.7-0.9c-0.6,0.4-1.2,0.8-1.8,1.2
		c-1.7,1.2-3.4,2.4-5.2,3.5c-3.5,2.3-7.2,4.2-11.2,5.7c-3.5,1.2-7.1,2-10.8,2.3c0.3,2,1,4,2,5.8c0.5-0.1,0.9-0.2,1.4-0.4
		C7.2,23,10.8,21.2,14,19 M31.2,9.6c-0.4,0.8-0.7,1.7-1.1,2.6c-0.8,2.1-1.5,4.3-2.5,6.4c-0.9,2.1-1.9,4.1-3.1,6.1s-2.5,3.9-3.9,5.7
		c-0.6,0.8-1.3,1.6-1.9,2.3C27.6,31.3,33.8,23,32.4,14C32.3,12.5,31.8,11,31.2,9.6 M25.2,15c1.4-1.8,2.7-3.6,4-5.5
		C29.6,9,30,8.5,30.4,8c-0.1-0.2-0.3-0.5-0.4-0.7l-1.5,1.3c-1.5,1.4-2.9,2.7-4.5,4c-3,2.6-6.1,5.1-9.4,7.3s-6.9,4-10.7,5.2
		c-0.4,0.1-0.8,0.2-1.2,0.3c1.4,2.1,3.2,3.8,5.3,5.1c2.8-1.8,5.5-3.7,8-5.8C19.4,21.8,22.5,18.6,25.2,15 M26.8,18.2
		c1-2,1.8-4.1,2.8-6.2c0.4-1,0.9-1.9,1.4-2.8l-0.4-0.8c-0.3,0.5-0.6,0.9-0.9,1.4c-1.2,1.9-2.4,3.8-3.8,5.7c-1.3,1.9-2.8,3.6-4.3,5.3
		c-1.6,1.7-3.2,3.2-5,4.7c-2.4,2-5,3.8-7.6,5.5c2.3,1.2,4.8,1.8,7.4,1.8h0.8c0.9-1.1,1.8-2.1,2.7-3.2C22.6,26,24.9,22.2,26.8,18.2
		 M19.1,8.7c3-1.2,6-2.6,9.1-3.5C22-1.4,11.7-1.7,5.1,4.4c-2.6,2.5-4.3,5.7-4.9,9.2C2.6,13.4,5,13,7.3,12.5
		C11.3,11.6,15.3,10.3,19.1,8.7"/>
</g>
<g>
	<path class="st0" d="M74.2,32.5l-0.7-1.9h-2.7l-0.7,1.9h-0.7l2.4-6.3h0.6l2.4,6.3H74.2z M72.3,27.3c0-0.1,0-0.1-0.1-0.2
		c0-0.1,0-0.2-0.1-0.2l0,0c0,0.1,0,0.2-0.1,0.2c0,0.1,0,0.1-0.1,0.2l-1,2.8h2.3L72.3,27.3z"/>
	<path class="st0" d="M82,32.5v-2.9h-3.4v2.9H78v-6.3h0.6V29H82v-2.8h0.6v6.3H82z"/>
	<path class="st0" d="M84.4,30.4c0,0.3,0,0.5,0.1,0.7s0.2,0.4,0.3,0.6s0.3,0.3,0.5,0.3c0.2,0.1,0.4,0.1,0.6,0.1c0.5,0,1-0.2,1.4-0.5
		v0.6c-0.4,0.3-1,0.5-1.6,0.5c-0.3,0-0.6-0.1-0.8-0.2s-0.5-0.3-0.6-0.5c-0.2-0.2-0.3-0.4-0.4-0.7s-0.1-0.6-0.1-1
		c0-0.3,0.1-0.6,0.2-0.9s0.2-0.5,0.4-0.7c0.2-0.2,0.4-0.4,0.6-0.5s0.5-0.2,0.8-0.2s0.5,0.1,0.8,0.2c0.2,0.1,0.4,0.2,0.6,0.4
		c0.2,0.2,0.3,0.4,0.3,0.7c0.1,0.3,0.1,0.6,0.1,0.9v0.3L84.4,30.4L84.4,30.4z M87.1,29.9c0-0.5-0.1-0.8-0.3-1.1s-0.5-0.4-0.9-0.4
		c-0.2,0-0.4,0-0.5,0.1c-0.2,0.1-0.3,0.2-0.4,0.3c-0.1,0.1-0.2,0.3-0.3,0.5c-0.1,0.2-0.1,0.4-0.2,0.6H87.1z"/>
	<path class="st0" d="M91.2,32.5v-0.8l0,0c-0.1,0.3-0.3,0.5-0.6,0.7c-0.3,0.2-0.5,0.2-0.9,0.2c-0.2,0-0.4,0-0.6-0.1
		s-0.3-0.1-0.4-0.3c-0.1-0.1-0.2-0.2-0.3-0.4c-0.1-0.2-0.1-0.3-0.1-0.5c0-0.4,0.1-0.7,0.4-1c0.3-0.2,0.6-0.4,1.1-0.5l1.4-0.2
		c0-0.9-0.3-1.3-1-1.3c-0.5,0-1,0.2-1.5,0.6v-0.6c0.1-0.1,0.2-0.1,0.3-0.2c0.1-0.1,0.2-0.1,0.4-0.1c0.1,0,0.3-0.1,0.4-0.1
		s0.3,0,0.4,0c0.5,0,0.9,0.1,1.1,0.4c0.3,0.3,0.4,0.7,0.4,1.3v2.9C91.7,32.5,91.2,32.5,91.2,32.5z M90.1,30.4
		c-0.2,0-0.4,0.1-0.5,0.1s-0.3,0.1-0.4,0.2S89,30.9,89,31c0,0.1-0.1,0.2-0.1,0.4c0,0.1,0,0.2,0.1,0.3c0,0.1,0.1,0.2,0.2,0.3
		c0.1,0.1,0.2,0.1,0.3,0.2c0.1,0,0.2,0.1,0.4,0.1c0.2,0,0.4,0,0.5-0.1s0.3-0.2,0.4-0.3c0.1-0.1,0.2-0.3,0.3-0.5
		c0.1-0.2,0.1-0.4,0.1-0.6v-0.4L90.1,30.4z"/>
	<path class="st0" d="M93.1,32.5v-6.7h0.6v6.7H93.1z"/>
	<path class="st0" d="M97,32.5c-0.2,0.1-0.4,0.1-0.6,0.1c-0.7,0-1.1-0.4-1.1-1.3v-2.8h-0.8V28h0.8v-1.1l0.6-0.2V28H97v0.5h-1.2v2.8
		c0,0.3,0,0.5,0.2,0.7c0.1,0.1,0.3,0.2,0.5,0.2s0.3-0.1,0.5-0.2V32.5z"/>
	<path class="st0" d="M100.9,32.5v-2.6c0-0.5-0.1-0.9-0.3-1.1c-0.2-0.2-0.5-0.4-0.8-0.4c-0.2,0-0.4,0-0.5,0.1
		c-0.2,0.1-0.3,0.2-0.4,0.3s-0.2,0.3-0.3,0.5c-0.1,0.2-0.1,0.4-0.1,0.7v2.5h-0.6v-6.7h0.6v2.9l0,0c0.4-0.6,0.9-0.9,1.5-0.9
		c0.5,0,0.9,0.2,1.1,0.5s0.4,0.8,0.4,1.4v2.8H100.9z"/>
	<path class="st0" d="M109.4,32.5l-3.5-5.1c0-0.1-0.1-0.1-0.1-0.2s-0.1-0.1-0.1-0.2l0,0c0,0.1,0,0.1,0,0.2s0,0.2,0,0.4v4.9h-0.6
		v-6.3h0.6l3.4,5c0.1,0.1,0.1,0.2,0.1,0.2c0,0.1,0.1,0.1,0.1,0.2l0,0c0-0.1,0-0.2,0-0.3s0-0.3,0-0.4v-4.7h0.6v6.3
		C109.9,32.5,109.4,32.5,109.4,32.5z"/>
	<path class="st0" d="M111.8,30.4c0,0.3,0,0.5,0.1,0.7s0.2,0.4,0.3,0.6s0.3,0.3,0.5,0.3c0.2,0.1,0.4,0.1,0.6,0.1
		c0.5,0,1-0.2,1.4-0.5v0.6c-0.4,0.3-1,0.5-1.6,0.5c-0.3,0-0.6-0.1-0.8-0.2s-0.5-0.3-0.6-0.5c-0.2-0.2-0.3-0.4-0.4-0.7
		s-0.1-0.6-0.1-1c0-0.3,0.1-0.6,0.2-0.9s0.2-0.5,0.4-0.7c0.2-0.2,0.4-0.4,0.6-0.5s0.5-0.2,0.8-0.2s0.5,0.1,0.8,0.2
		c0.2,0.1,0.4,0.2,0.6,0.4c0.2,0.2,0.3,0.4,0.3,0.7c0.1,0.3,0.1,0.6,0.1,0.9v0.3L111.8,30.4L111.8,30.4z M114.5,29.9
		c0-0.5-0.1-0.8-0.3-1.1c-0.2-0.3-0.5-0.4-0.9-0.4c-0.2,0-0.4,0-0.5,0.1c-0.2,0.1-0.3,0.2-0.4,0.3c-0.1,0.1-0.2,0.3-0.3,0.5
		c-0.1,0.2-0.1,0.4-0.2,0.6H114.5z"/>
	<path class="st0" d="M118,32.5c-0.2,0.1-0.4,0.1-0.6,0.1c-0.7,0-1.1-0.4-1.1-1.3v-2.8h-0.8V28h0.8v-1.1l0.6-0.2V28h1.2v0.5h-1.2
		v2.8c0,0.3,0,0.5,0.2,0.7c0.1,0.1,0.3,0.2,0.5,0.2s0.3-0.1,0.5-0.2L118,32.5L118,32.5z"/>
	<path class="st0" d="M123.2,32.5h-0.6l-1-3.3c0-0.1-0.1-0.2-0.1-0.4l0,0c0,0,0,0.1,0,0.2s0,0.1-0.1,0.2l-1.1,3.3H120l-1.4-4.5h0.6
		l1,3.5c0,0.1,0,0.2,0.1,0.4l0,0c0-0.1,0-0.1,0-0.2s0-0.1,0.1-0.2l1.1-3.5h0.5l1,3.5c0,0.1,0,0.2,0.1,0.4l0,0c0,0,0-0.1,0-0.2
		s0-0.1,0.1-0.2l1-3.5h0.6L123.2,32.5z"/>
	<path class="st0" d="M127.2,32.6c-0.3,0-0.6-0.1-0.9-0.2c-0.3-0.1-0.5-0.3-0.7-0.5s-0.3-0.4-0.4-0.7c-0.1-0.3-0.2-0.6-0.2-0.9
		c0-0.4,0.1-0.7,0.2-1s0.3-0.5,0.5-0.8c0.2-0.2,0.4-0.4,0.7-0.5s0.6-0.2,0.9-0.2s0.6,0.1,0.9,0.2s0.5,0.3,0.7,0.5s0.3,0.4,0.4,0.7
		s0.1,0.6,0.1,1s0,0.7-0.2,1c-0.1,0.3-0.2,0.5-0.4,0.7c-0.2,0.2-0.4,0.4-0.7,0.5C127.9,32.6,127.5,32.6,127.2,32.6z M127.3,28.4
		c-0.2,0-0.5,0-0.7,0.1s-0.4,0.2-0.5,0.4c-0.1,0.2-0.3,0.4-0.3,0.6c-0.1,0.2-0.1,0.5-0.1,0.8s0,0.5,0.1,0.8c0.1,0.2,0.2,0.4,0.3,0.6
		c0.1,0.2,0.3,0.3,0.5,0.4c0.2,0.1,0.4,0.1,0.7,0.1c0.3,0,0.5,0,0.7-0.1c0.2-0.1,0.4-0.2,0.5-0.4c0.1-0.2,0.2-0.4,0.3-0.6
		s0.1-0.5,0.1-0.8c0-0.6-0.1-1.1-0.4-1.4C128.1,28.6,127.8,28.4,127.3,28.4z"/>
	<path class="st0" d="M132.7,28.6c-0.1-0.1-0.3-0.1-0.5-0.1c-0.1,0-0.3,0-0.4,0.1c-0.1,0.1-0.2,0.1-0.3,0.2s-0.2,0.2-0.2,0.3
		c-0.1,0.1-0.1,0.3-0.1,0.4s-0.1,0.3-0.1,0.4s0,0.3,0,0.4v2.2h-0.6V28h0.6v1l0,0c0.1-0.2,0.1-0.3,0.2-0.4c0.1-0.1,0.2-0.2,0.3-0.3
		c0.1-0.1,0.2-0.2,0.3-0.2s0.3-0.1,0.4-0.1c0.1,0,0.2,0,0.2,0c0.1,0,0.1,0,0.2,0.1L132.7,28.6L132.7,28.6z"/>
	<path class="st0" d="M136.2,32.5l-2.1-2.2l0,0v2.2h-0.6v-6.7h0.6v4.3l0,0l2-2.1h0.7l-2.1,2.2l2.3,2.3H136.2z"/>
	<path class="st0" d="M142.6,32.6c-0.5,0-0.9-0.1-1.2-0.2c-0.4-0.2-0.7-0.4-0.9-0.7c-0.3-0.3-0.4-0.6-0.6-1
		c-0.1-0.4-0.2-0.8-0.2-1.3s0.1-0.9,0.2-1.4c0.1-0.4,0.3-0.8,0.6-1.1c0.3-0.3,0.6-0.5,1-0.7s0.8-0.2,1.3-0.2c0.4,0,0.8,0.1,1.2,0.2
		c0.4,0.2,0.7,0.4,0.9,0.7c0.2,0.3,0.4,0.6,0.6,1c0.1,0.4,0.2,0.8,0.2,1.3s-0.1,0.9-0.2,1.3c-0.1,0.4-0.3,0.8-0.6,1.1
		c-0.3,0.3-0.6,0.5-0.9,0.7C143.5,32.6,143.1,32.6,142.6,32.6z M142.6,26.7c-0.4,0-0.7,0.1-1,0.2s-0.5,0.3-0.7,0.6
		c-0.2,0.2-0.4,0.5-0.5,0.9c-0.1,0.3-0.2,0.7-0.2,1.1s0,0.7,0.1,1s0.2,0.6,0.4,0.9s0.4,0.5,0.7,0.6s0.6,0.2,1,0.2s0.7-0.1,1-0.2
		c0.3-0.1,0.5-0.3,0.7-0.6c0.2-0.2,0.3-0.5,0.5-0.9c0.1-0.3,0.2-0.7,0.2-1.1s0-0.7-0.1-1s-0.2-0.6-0.4-0.9c-0.2-0.2-0.4-0.4-0.7-0.6
		C143.4,26.7,143.1,26.7,142.6,26.7z"/>
	<path class="st0" d="M149.8,32.5v-2.6c0-1-0.4-1.5-1.1-1.5c-0.2,0-0.4,0-0.5,0.1c-0.2,0.1-0.3,0.2-0.4,0.3
		c-0.1,0.1-0.2,0.3-0.3,0.5s-0.1,0.4-0.1,0.6v2.6h-0.6V28h0.6v0.8l0,0c0.3-0.6,0.8-0.9,1.5-0.9c0.5,0,0.9,0.2,1.1,0.5
		s0.4,0.8,0.4,1.4v2.7H149.8z"/>
	<path class="st0" d="M151.9,30.4c0,0.3,0,0.5,0.1,0.7s0.2,0.4,0.3,0.6s0.3,0.3,0.5,0.3c0.2,0.1,0.4,0.1,0.6,0.1
		c0.5,0,1-0.2,1.4-0.5v0.6c-0.4,0.3-1,0.5-1.6,0.5c-0.3,0-0.6-0.1-0.8-0.2s-0.5-0.3-0.6-0.5c-0.2-0.2-0.3-0.4-0.4-0.7
		s-0.1-0.6-0.1-1c0-0.3,0.1-0.6,0.2-0.9s0.2-0.5,0.4-0.7s0.4-0.4,0.6-0.5c0.2-0.1,0.5-0.2,0.8-0.2s0.5,0.1,0.8,0.2
		c0.2,0.1,0.4,0.2,0.6,0.4c0.2,0.2,0.3,0.4,0.3,0.7c0.1,0.3,0.1,0.6,0.1,0.9v0.3L151.9,30.4L151.9,30.4z M154.6,29.9
		c0-0.5-0.1-0.8-0.3-1.1s-0.5-0.4-0.9-0.4c-0.2,0-0.4,0-0.5,0.1c-0.2,0.1-0.3,0.2-0.4,0.3c-0.1,0.1-0.2,0.3-0.3,0.5
		s-0.1,0.4-0.2,0.6H154.6z"/>
	<path class="st0" d="M162.8,32.3c-0.5,0.2-1,0.3-1.7,0.3c-0.4,0-0.9-0.1-1.2-0.2c-0.4-0.2-0.7-0.4-0.9-0.7c-0.3-0.3-0.5-0.6-0.6-1
		s-0.2-0.8-0.2-1.3s0.1-0.9,0.2-1.3c0.1-0.4,0.4-0.8,0.6-1.1c0.3-0.3,0.6-0.5,1-0.7s0.8-0.3,1.3-0.3s1,0.1,1.4,0.2V27
		c-0.5-0.2-0.9-0.3-1.4-0.3c-0.4,0-0.8,0.1-1.1,0.2s-0.6,0.3-0.8,0.6c-0.2,0.3-0.4,0.5-0.5,0.9c-0.1,0.3-0.2,0.7-0.2,1.1
		s0.1,0.7,0.2,1c0.1,0.3,0.3,0.6,0.5,0.8c0.2,0.2,0.5,0.4,0.7,0.6s0.6,0.2,1,0.2c0.6,0,1.1-0.1,1.6-0.4L162.8,32.3L162.8,32.3z"/>
	<path class="st0" d="M165.7,32.6c-0.3,0-0.6-0.1-0.9-0.2c-0.3-0.1-0.5-0.3-0.7-0.5s-0.3-0.4-0.4-0.7c-0.1-0.3-0.2-0.6-0.2-0.9
		c0-0.4,0.1-0.7,0.2-1s0.3-0.5,0.5-0.8c0.2-0.2,0.4-0.4,0.7-0.5s0.6-0.2,0.9-0.2c0.3,0,0.6,0.1,0.9,0.2c0.3,0.1,0.5,0.3,0.7,0.5
		s0.3,0.4,0.4,0.7s0.1,0.6,0.1,1s0,0.7-0.2,1c-0.1,0.3-0.2,0.5-0.4,0.7c-0.2,0.2-0.4,0.4-0.7,0.5C166.4,32.6,166,32.6,165.7,32.6z
		 M165.8,28.4c-0.2,0-0.5,0-0.7,0.1s-0.4,0.2-0.5,0.4c-0.1,0.2-0.3,0.4-0.3,0.6c-0.1,0.2-0.1,0.5-0.1,0.8s0,0.5,0.1,0.8
		c0.1,0.2,0.2,0.4,0.3,0.6s0.3,0.3,0.5,0.4c0.2,0.1,0.4,0.1,0.7,0.1s0.5,0,0.7-0.1c0.2-0.1,0.4-0.2,0.5-0.4c0.1-0.2,0.2-0.4,0.3-0.6
		s0.1-0.5,0.1-0.8c0-0.6-0.1-1.1-0.4-1.4C166.6,28.6,166.3,28.4,165.8,28.4z"/>
	<path class="st0" d="M174.6,32.5v-2.6c0-0.3,0-0.5-0.1-0.7c0-0.2-0.1-0.3-0.2-0.5c-0.1-0.1-0.2-0.2-0.3-0.3
		c-0.1-0.1-0.3-0.1-0.5-0.1s-0.3,0-0.5,0.1c-0.1,0.1-0.3,0.2-0.4,0.3c-0.1,0.1-0.2,0.3-0.3,0.5s-0.1,0.4-0.1,0.6v2.6h-0.6v-2.7
		c0-0.9-0.4-1.4-1.1-1.4c-0.2,0-0.3,0-0.5,0.1c-0.1,0.1-0.3,0.2-0.4,0.3c-0.1,0.1-0.2,0.3-0.2,0.5c-0.1,0.2-0.1,0.4-0.1,0.6v2.6H169
		V28h0.6v0.7l0,0c0.3-0.6,0.8-0.8,1.4-0.8c0.2,0,0.3,0,0.4,0.1c0.1,0,0.3,0.1,0.4,0.2c0.1,0.1,0.2,0.2,0.3,0.3
		c0.1,0.1,0.1,0.3,0.2,0.4c0.2-0.3,0.4-0.6,0.6-0.7c0.3-0.2,0.5-0.2,0.9-0.2c1,0,1.5,0.6,1.5,1.8v2.8L174.6,32.5L174.6,32.5z"/>
	<path class="st0" d="M177,31.8v2.8h-0.6V28h0.6v0.9l0,0c0.2-0.3,0.4-0.6,0.7-0.7c0.3-0.2,0.6-0.2,0.9-0.2c0.3,0,0.5,0.1,0.8,0.2
		c0.2,0.1,0.4,0.3,0.6,0.4c0.2,0.2,0.3,0.4,0.4,0.7c0.1,0.3,0.1,0.6,0.1,0.9c0,0.4,0,0.7-0.1,1s-0.2,0.6-0.4,0.8s-0.4,0.4-0.6,0.5
		c-0.2,0.1-0.5,0.2-0.8,0.2C177.8,32.6,177.4,32.4,177,31.8L177,31.8z M177,30.7c0,0.2,0,0.4,0.1,0.6s0.2,0.3,0.3,0.5
		c0.1,0.1,0.3,0.2,0.4,0.3c0.2,0.1,0.4,0.1,0.6,0.1c0.2,0,0.4,0,0.6-0.1c0.2-0.1,0.3-0.2,0.5-0.4c0.1-0.2,0.2-0.4,0.3-0.6
		s0.1-0.5,0.1-0.8s0-0.5-0.1-0.7s-0.2-0.4-0.3-0.5s-0.3-0.3-0.4-0.3c-0.2-0.1-0.4-0.1-0.6-0.1c-0.2,0-0.4,0-0.6,0.1
		c-0.2,0.1-0.3,0.2-0.5,0.4s-0.2,0.3-0.3,0.5s-0.1,0.4-0.1,0.6V30.7z"/>
	<path class="st0" d="M184.2,32.5v-0.8l0,0c-0.1,0.3-0.3,0.5-0.6,0.7s-0.5,0.2-0.9,0.2c-0.2,0-0.4,0-0.6-0.1
		c-0.2-0.1-0.3-0.1-0.4-0.3c-0.1-0.1-0.2-0.2-0.3-0.4c-0.1-0.2-0.1-0.3-0.1-0.5c0-0.4,0.1-0.7,0.4-1c0.3-0.2,0.6-0.4,1.1-0.5
		l1.4-0.2c0-0.9-0.3-1.3-1-1.3c-0.5,0-1,0.2-1.5,0.6v-0.6c0.1-0.1,0.2-0.1,0.3-0.2s0.2-0.1,0.4-0.1c0.1,0,0.3-0.1,0.4-0.1
		c0.1,0,0.3,0,0.4,0c0.5,0,0.9,0.1,1.1,0.4c0.3,0.3,0.4,0.7,0.4,1.3v2.9C184.7,32.5,184.2,32.5,184.2,32.5z M183,30.4
		c-0.2,0-0.4,0.1-0.5,0.1s-0.3,0.1-0.4,0.2c-0.1,0.1-0.2,0.2-0.2,0.3c0,0.1-0.1,0.2-0.1,0.4c0,0.1,0,0.2,0.1,0.3
		c0,0.1,0.1,0.2,0.2,0.3c0.1,0.1,0.2,0.1,0.3,0.2c0.1,0,0.2,0.1,0.4,0.1s0.4,0,0.5-0.1s0.3-0.2,0.4-0.3c0.1-0.1,0.2-0.3,0.3-0.5
		s0.1-0.4,0.1-0.6v-0.4L183,30.4z"/>
	<path class="st0" d="M189,32.5v-2.6c0-1-0.4-1.5-1.1-1.5c-0.2,0-0.4,0-0.5,0.1c-0.2,0.1-0.3,0.2-0.4,0.3c-0.1,0.1-0.2,0.3-0.3,0.5
		s-0.1,0.4-0.1,0.6v2.6H186V28h0.6v0.8l0,0c0.3-0.6,0.8-0.9,1.5-0.9c0.5,0,0.9,0.2,1.1,0.5s0.4,0.8,0.4,1.4v2.7H189z"/>
	<path class="st0" d="M192.1,33.4c-0.2,0.4-0.4,0.8-0.6,1c-0.2,0.2-0.5,0.3-0.8,0.3c-0.2,0-0.3,0-0.4-0.1v-0.5c0.1,0,0.1,0,0.2,0.1
		c0.1,0,0.1,0,0.2,0c0.2,0,0.3-0.1,0.5-0.2c0.1-0.1,0.3-0.3,0.4-0.5l0.4-0.9l-1.7-4.5h0.6l1.3,3.6c0,0,0,0.1,0.1,0.2
		c0,0.1,0,0.1,0,0.2l0,0c0,0,0-0.1,0-0.2s0-0.1,0.1-0.2l1.4-3.6h0.6L192.1,33.4z"/>
</g>
</svg>
